<svg width="80" height="94" viewBox="0 0 80 94" fill="none" xmlns="http://www.w3.org/2000/svg">
<path d="M5.52917 1.84314C5.52917 0.825201 6.35438 0 7.37231 0H47.8244L63.491 15.7636L79.1577 31.3333V92.1569C79.1577 93.1748 78.3325 94 77.3146 94H7.37232C6.35438 94 5.52917 93.1748 5.52917 92.1569V1.84314Z" fill="#EDEDED"/>
<rect y="47.7681" width="59.5948" height="30.1046" rx="1.22876" fill="#9E9E9E"/>
<path d="M20.5868 64.0195H17.8044V62.2646H20.5868C21.0167 62.2646 21.3667 62.1946 21.6367 62.0546C21.9067 61.9096 22.1042 61.7096 22.2292 61.4546C22.3542 61.1996 22.4167 60.9121 22.4167 60.5921C22.4167 60.2671 22.3542 59.9646 22.2292 59.6846C22.1042 59.4047 21.9067 59.1797 21.6367 59.0097C21.3667 58.8397 21.0167 58.7547 20.5868 58.7547H18.5843V67.9119H16.3344V56.9922H20.5868C21.4417 56.9922 22.1742 57.1472 22.7842 57.4572C23.3992 57.7622 23.8691 58.1847 24.1941 58.7247C24.5191 59.2647 24.6816 59.8821 24.6816 60.5771C24.6816 61.2821 24.5191 61.8921 24.1941 62.4071C23.8691 62.922 23.3992 63.3195 22.7842 63.5995C22.1742 63.8795 21.4417 64.0195 20.5868 64.0195ZM29.5865 67.9119H27.209L27.224 66.1569H29.5865C30.1764 66.1569 30.6739 66.0244 31.0789 65.7594C31.4839 65.4894 31.7889 65.097 31.9939 64.582C32.2039 64.067 32.3089 63.4445 32.3089 62.7145V62.1821C32.3089 61.6221 32.2489 61.1296 32.1289 60.7046C32.0139 60.2796 31.8414 59.9221 31.6114 59.6321C31.3814 59.3422 31.0989 59.1247 30.7639 58.9797C30.4289 58.8297 30.0439 58.7547 29.609 58.7547H27.164V56.9922H29.609C30.3389 56.9922 31.0064 57.1172 31.6114 57.3672C32.2214 57.6122 32.7488 57.9647 33.1938 58.4247C33.6388 58.8847 33.9813 59.4347 34.2213 60.0746C34.4663 60.7096 34.5888 61.4171 34.5888 62.1971V62.7145C34.5888 63.4895 34.4663 64.197 34.2213 64.837C33.9813 65.4769 33.6388 66.0269 33.1938 66.4869C32.7538 66.9419 32.2264 67.2944 31.6114 67.5444C31.0014 67.7894 30.3264 67.9119 29.5865 67.9119ZM28.484 56.9922V67.9119H26.2341V56.9922H28.484ZM38.4737 56.9922V67.9119H36.2237V56.9922H38.4737ZM42.8235 61.6571V63.412H37.8587V61.6571H42.8235ZM43.3485 56.9922V58.7547H37.8587V56.9922H43.3485Z" fill="white"/>
<path d="M47.8246 0L63.4913 15.6667L79.1579 31.3333H49.4737C48.5629 31.3333 47.8246 30.595 47.8246 29.6842V0Z" fill="#DBDBDB"/>
</svg>
