<svg width="70" height="70" viewBox="0 0 70 70" fill="none" xmlns="http://www.w3.org/2000/svg">
<rect width="70" height="70" rx="8" fill="white"/>
<path d="M39.5875 45.5416C41.9091 45.0112 44.1177 44.1025 46.1326 42.8438C47.6472 41.8347 48.0575 39.8002 47.0419 38.2879C46.0699 36.8393 44.1245 36.4012 42.6194 37.291C37.9829 40.1732 32.0894 40.1732 27.4529 37.291C25.9192 36.3239 23.8811 36.7824 22.9091 38.3069C22.9091 38.3137 22.9091 38.3137 22.9091 38.3137C21.9371 39.8477 22.3979 41.874 23.9398 42.8343L23.9452 42.8411C25.9561 44.0998 28.1646 45.0099 30.4781 45.5334L24.1797 51.7983C22.8941 53.057 22.875 55.1037 24.1306 56.3841L24.1865 56.4397C24.8123 57.0813 25.6575 57.4 26.5027 57.4C27.348 57.4 28.1918 57.0813 28.8162 56.4397L35.0369 50.286L41.2207 56.4479C42.5349 57.697 44.6221 57.6686 45.8872 56.3624C47.121 55.0915 47.121 53.076 45.8872 51.8051L39.5875 45.5416ZM35.0355 36.4012C41.2561 36.3944 46.2894 31.3841 46.2962 25.2033C46.2962 19.0293 41.2411 14 35.0355 14C28.8298 14 23.7748 19.0293 23.7748 25.2033C23.7816 31.3923 28.823 36.4012 35.0355 36.408V36.4012ZM35.0355 20.5701C37.6053 20.5701 39.6925 22.6466 39.6925 25.2033C39.6925 27.7682 37.6053 29.8379 35.0355 29.8461C32.4657 29.8393 30.3785 27.7682 30.3717 25.2033C30.3785 22.6466 32.4657 20.5701 35.0355 20.5633V20.5701Z" fill="#E42D24"/>
</svg>
