<svg width="70" height="70" viewBox="0 0 70 70" fill="none" xmlns="http://www.w3.org/2000/svg">
<rect width="70" height="70" rx="8" fill="white"/>
<path d="M49.6195 18.509C49.6195 18.509 53.5048 16.994 53.181 20.6733C53.0731 22.1883 52.1018 27.4908 51.3463 33.2262L48.7561 50.2159C48.7561 50.2159 48.5403 52.7048 46.5976 53.1377C44.6549 53.5705 41.741 51.6227 41.2013 51.1898C40.7696 50.8652 33.107 45.9955 30.4088 43.6148C29.6533 42.9655 28.7899 41.6669 30.5167 40.1519L41.8489 29.3305C43.144 28.0319 44.4391 25.0019 39.0428 28.6812L23.9333 38.9616C23.9333 38.9616 22.2065 40.0437 18.9688 39.0698L11.9536 36.9055C11.9536 36.9055 9.3634 35.2823 13.7883 33.659C24.5809 28.5729 37.8557 23.3786 49.6195 18.509Z" fill="#E42D24"/>
</svg>
