<svg width="70" height="70" viewBox="0 0 70 70" fill="none" xmlns="http://www.w3.org/2000/svg">
<rect width="70" height="70" rx="8" fill="white"/>
<path d="M57.7231 22.925C57.1875 24.5892 56.4654 26.0378 55.5609 27.3531L55.5986 27.2943C54.7099 28.758 53.6486 30.449 52.4148 32.3674C51.3568 33.882 50.7968 34.6661 50.7346 34.7197C50.4609 35.0588 50.2704 35.4744 50.205 35.9311L50.203 35.9448C50.2566 36.3604 50.451 36.723 50.7346 36.9936L51.5281 37.8678C55.7731 42.179 58.1608 45.1507 58.6911 46.783C58.7605 46.9633 58.8002 47.1711 58.8002 47.3887C58.8002 47.769 58.6772 48.1199 58.4689 48.408L58.4729 48.4021C58.1238 48.7569 57.6358 48.9765 57.0962 48.9765C57.0367 48.9765 56.9752 48.9745 56.9177 48.9686H56.9256H51.7066C51.7046 48.9686 51.7007 48.9686 51.6967 48.9686C51.0282 48.9686 50.4133 48.7373 49.9312 48.3531L49.9372 48.357C49.235 47.7866 48.6101 47.1691 48.0507 46.4987L48.0329 46.4752C47.1191 45.4546 46.3084 44.5954 45.6009 43.8975C43.2443 41.6837 41.5053 40.5769 40.3839 40.5769C40.3422 40.5729 40.2946 40.571 40.245 40.571C39.9177 40.571 39.6122 40.671 39.3603 40.8415L39.3662 40.8376C39.1599 41.0924 39.035 41.4217 39.035 41.7765C39.035 41.8471 39.0389 41.9137 39.0489 41.9824V41.9745C38.9953 42.59 38.9636 43.3055 38.9636 44.0288C38.9636 44.2621 38.9675 44.4934 38.9735 44.7247V44.6914V46.9633C38.9933 47.0554 39.0052 47.1613 39.0052 47.2691C39.0052 47.7435 38.787 48.1669 38.4458 48.4472L38.4438 48.4492C37.6762 48.7961 36.7795 49 35.8333 49C35.631 49 35.4326 48.9902 35.2362 48.9726L35.262 48.9745C32.1398 48.9157 29.2436 48.012 26.7819 46.4889L26.8513 46.5281C23.854 44.7286 21.3704 42.3862 19.478 39.6183L19.4245 39.536C17.6273 37.1798 15.9511 34.5178 14.5228 31.7107L14.384 31.4088C13.5489 29.8367 12.684 27.9039 11.9381 25.9163L11.8191 25.5536C11.5156 24.6598 11.2954 23.6208 11.2042 22.5447L11.2002 22.4957C11.2002 21.5051 11.79 21.0098 12.9696 21.0098H18.1867C18.2343 21.0059 18.2898 21.0039 18.3473 21.0039C18.8393 21.0039 19.2935 21.1705 19.6526 21.4509L19.6486 21.4469C20.0454 21.8762 20.3389 22.4035 20.4837 22.9916L20.4897 23.0151C21.4498 25.6948 22.4674 27.9451 23.6378 30.1014L23.5049 29.8328C24.461 31.7342 25.5183 33.371 26.7243 34.8824L26.6787 34.8216C27.7367 36.1049 28.5619 36.7466 29.1543 36.7466C29.1722 36.7485 29.194 36.7485 29.2178 36.7485C29.5114 36.7485 29.7673 36.5917 29.9061 36.3565L29.9081 36.3526C30.0549 35.9801 30.1402 35.5469 30.1402 35.0961C30.1402 35 30.1362 34.9039 30.1283 34.8099V34.8216V27.2179C30.0867 26.322 29.8645 25.485 29.4935 24.7342L29.5094 24.7715C29.2634 24.254 28.9679 23.8071 28.6168 23.4091L28.6227 23.417C28.2974 23.0955 28.0752 22.674 28.0058 22.2036L28.0038 22.1918C28.0038 21.8586 28.1585 21.5587 28.4005 21.3626L28.4025 21.3607C28.6426 21.1431 28.9639 21.0118 29.315 21.0118H29.3309H37.5552C37.5988 21.0059 37.6484 21.0039 37.7 21.0039C38.0868 21.0039 38.4339 21.1764 38.664 21.4469L38.666 21.4489C38.8703 21.8174 38.9913 22.2585 38.9913 22.725C38.9913 22.7995 38.9874 22.872 38.9814 22.9446V22.9348V33.075C38.9774 33.1221 38.9755 33.177 38.9755 33.2319C38.9755 33.5926 39.0766 33.9317 39.2512 34.2198L39.2472 34.212C39.392 34.4237 39.634 34.5609 39.9078 34.5609C40.2569 34.5374 40.5763 34.4237 40.8441 34.2433L40.8381 34.2473C41.3777 33.8807 41.8418 33.4632 42.2445 32.9908L42.2525 32.981C43.4566 31.6362 44.5674 30.1504 45.5354 28.5704L45.6128 28.4332C46.2952 27.3159 47.0331 25.9398 47.7016 24.5265L47.8246 24.2383L48.7093 22.4898C49.0168 21.6155 49.842 21 50.812 21C50.8497 21 50.8874 21 50.925 21.002H50.9191H56.1381C57.5478 21.002 58.0768 21.643 57.725 22.925H57.7231Z" fill="#E42D24"/>
</svg>
