<svg width="70" height="70" viewBox="0 0 70 70" fill="none" xmlns="http://www.w3.org/2000/svg">
<rect width="70" height="70" rx="8" fill="white"/>
<path d="M16.8071 53.2L19.2677 44.1582C17.6464 41.3788 16.7945 38.2177 16.7998 35C16.7998 24.9481 24.948 16.8 34.9998 16.8C45.0517 16.8 53.1998 24.9481 53.1998 35C53.1998 45.0518 45.0517 53.2 34.9998 53.2C31.7835 53.2052 28.6237 52.354 25.8452 50.7339L16.8071 53.2ZM28.4314 26.4605C28.1964 26.4751 27.9667 26.537 27.7562 26.6425C27.5588 26.7543 27.3786 26.8941 27.2211 27.0575C27.0027 27.2632 26.879 27.4415 26.7461 27.6144C26.0735 28.4898 25.7117 29.5644 25.7178 30.6684C25.7215 31.5602 25.9544 32.4283 26.3184 33.24C27.0628 34.8817 28.2877 36.6198 29.9056 38.2305C30.2951 38.6181 30.6755 39.0076 31.085 39.3698C33.0932 41.1379 35.4862 42.4129 38.0738 43.0935L39.1094 43.2519C39.4461 43.2701 39.7828 43.2446 40.1213 43.2282C40.6513 43.2008 41.1689 43.0573 41.6374 42.8078C41.9395 42.6476 42.0814 42.5675 42.3344 42.4074C42.3344 42.4074 42.4127 42.3564 42.5619 42.2436C42.8076 42.0616 42.9587 41.9324 43.1625 41.7194C43.3136 41.5629 43.4446 41.3791 43.5447 41.1698C43.6867 40.8731 43.8286 40.3071 43.8869 39.8357C43.9306 39.4754 43.9178 39.2788 43.9124 39.1569C43.9051 38.9621 43.7431 38.7601 43.5666 38.6746L42.5073 38.1995C42.5073 38.1995 40.9239 37.5098 39.9575 37.0693C39.8556 37.0249 39.7464 36.9996 39.6354 36.9947C39.5108 36.9819 39.385 36.9959 39.2664 37.0358C39.1477 37.0757 39.0389 37.1405 38.9474 37.2258V37.2222C38.9383 37.2222 38.8164 37.3259 37.5005 38.9203C37.425 39.0217 37.3209 39.0984 37.2017 39.1406C37.0824 39.1827 36.9532 39.1884 36.8307 39.1569C36.7121 39.1251 36.596 39.085 36.4831 39.0367C36.2574 38.9421 36.1792 38.9057 36.0245 38.8384L36.0154 38.8347C34.9742 38.3801 34.0101 37.7661 33.158 37.0147C32.9287 36.8145 32.7157 36.5961 32.4973 36.385C31.7813 35.6993 31.1573 34.9236 30.6409 34.0772L30.5335 33.9043C30.4564 33.7882 30.3941 33.6628 30.3479 33.5312C30.2787 33.2637 30.4589 33.0489 30.4589 33.0489C30.4589 33.0489 30.9012 32.5648 31.1068 32.3027C31.2781 32.0849 31.4379 31.8583 31.5855 31.6239C31.8003 31.2781 31.8676 30.9232 31.7548 30.6484C31.2452 29.4035 30.7174 28.1641 30.175 26.9337C30.0676 26.6899 29.7491 26.5151 29.4597 26.4806C29.3615 26.4696 29.2632 26.4587 29.1649 26.4514C28.9205 26.4393 28.6756 26.4436 28.4314 26.4605Z" fill="#E42D24"/>
</svg>
