<svg width="70" height="70" viewBox="0 0 70 70" fill="none" xmlns="http://www.w3.org/2000/svg">
<rect width="70" height="70" rx="8" fill="white"/>
<path d="M55.1615 25.3941C54.936 24.5401 54.4836 23.7603 53.8505 23.1342C53.2174 22.5082 52.4265 22.0584 51.5585 21.8308C46.296 21.2213 40.9987 20.9466 35.6999 21.0085C30.4012 20.9466 25.104 21.2213 19.8413 21.8308C18.9734 22.0584 18.1824 22.5082 17.5494 23.1342C16.9164 23.7603 16.4639 24.5401 16.2383 25.3941C15.6618 28.5685 15.3815 31.788 15.4009 35.0124C15.3806 38.2535 15.6608 41.4896 16.2383 44.6806C16.4756 45.5208 16.9333 46.2851 17.5655 46.8973C18.1978 47.5096 18.9825 47.9481 19.8413 48.1691C25.104 48.7786 30.4012 49.0535 35.6999 48.9914C40.9987 49.0535 46.296 48.7786 51.5585 48.1691C52.4174 47.9481 53.2022 47.5096 53.8342 46.8973C54.4666 46.2851 54.9243 45.5208 55.1615 44.6806C55.739 41.4896 56.0192 38.2535 55.9989 35.0124C56.0184 31.788 55.738 28.5685 55.1615 25.3941ZM31.5386 40.9678V29.1069L42.1702 35.0124L31.5386 40.9429V40.9678Z" fill="#E42D24"/>
</svg>
