<svg width="22" height="36" viewBox="0 0 22 36" fill="none" xmlns="http://www.w3.org/2000/svg">
<path d="M15.1766 26.1619C17.0925 25.722 18.915 24.9683 20.5778 23.9243C21.8276 23.0873 22.1663 21.3997 21.3281 20.1454C20.526 18.9439 18.9206 18.5805 17.6786 19.3185C13.8525 21.7091 8.98914 21.7091 5.16301 19.3185C3.89739 18.5164 2.21551 18.8966 1.41339 20.1611C1.41339 20.1667 1.41339 20.1668 1.41339 20.1668C0.611262 21.4391 0.991512 23.1199 2.26389 23.9164L2.26839 23.922C3.92776 24.966 5.75026 25.7209 7.65939 26.1551L2.46189 31.3515C1.40101 32.3955 1.38526 34.0931 2.42139 35.1551L2.46751 35.2013C2.98389 35.7334 3.68139 35.9977 4.37889 35.9977C5.07639 35.9977 5.77276 35.7334 6.28801 35.2013L11.4214 30.0971L16.5244 35.208C17.6089 36.2441 19.3313 36.2205 20.3753 35.1371C21.3934 34.083 21.3934 32.4112 20.3753 31.3571L15.1766 26.1619ZM11.4203 18.5805C16.5536 18.5749 20.7071 14.4191 20.7128 9.2925C20.7128 4.1715 16.5413 0 11.4203 0C6.29926 0 2.12776 4.1715 2.12776 9.2925C2.13339 14.4259 6.29364 18.5805 11.4203 18.5861V18.5805ZM11.4203 5.4495C13.5409 5.4495 15.2633 7.17188 15.2633 9.2925C15.2633 11.4199 13.5409 13.1366 11.4203 13.1434C9.29964 13.1377 7.57726 11.4199 7.57164 9.2925C7.57726 7.17188 9.29964 5.4495 11.4203 5.44388V5.4495Z" fill="#7E7E7E"/>
</svg>
