<svg width="36" height="30" viewBox="0 0 36 30" fill="none" xmlns="http://www.w3.org/2000/svg">
<path d="M33.0092 0.257492C33.0092 0.257492 36.247 -1.00501 35.9772 2.06107C35.8872 3.32358 35.0778 7.74233 34.4482 12.5218L32.2897 26.6799C32.2897 26.6799 32.1099 28.754 30.491 29.1147C28.8721 29.4754 26.4438 27.8522 25.9941 27.4915C25.6343 27.221 19.2488 23.1629 17.0003 21.179C16.3707 20.6379 15.6512 19.5557 17.0902 18.2932L26.5337 9.27542C27.613 8.19325 28.6922 5.66825 24.1953 8.73433L11.6041 17.3013C11.6041 17.3013 10.1651 18.2031 7.467 17.3915L1.62101 15.5879C1.62101 15.5879 -0.537494 14.2352 3.14996 12.8825C12.1437 8.64408 23.2061 4.3155 33.0092 0.257492Z" fill="#E42D24"/>
</svg>
