<svg width="40" height="24" viewBox="0 0 40 24" fill="none" xmlns="http://www.w3.org/2000/svg">
<g id="Frame 1">
<path id="Vector" d="M39.0883 1.63667C38.6383 3.05167 38.0317 4.28333 37.2717 5.40167L37.3033 5.35167C36.5567 6.59611 35.665 8.03389 34.6283 9.665C33.7394 10.9528 33.2689 11.6194 33.2167 11.665C32.9867 11.9533 32.8267 12.3067 32.7717 12.695L32.77 12.7067C32.815 13.06 32.9783 13.3683 33.2167 13.5983L33.8833 14.3417C37.45 18.0072 39.4561 20.5339 39.9017 21.9217C39.96 22.075 39.9933 22.2517 39.9933 22.4367C39.9933 22.76 39.89 23.0583 39.715 23.3033L39.7183 23.2983C39.425 23.6 39.015 23.7867 38.5617 23.7867C38.5117 23.7867 38.46 23.785 38.4117 23.78H38.4183H34.0333C34.0317 23.78 34.0283 23.78 34.025 23.78C33.4633 23.78 32.9467 23.5833 32.5417 23.2567L32.5467 23.26C31.9567 22.775 31.4317 22.25 30.9617 21.68L30.9467 21.66C30.1789 20.7922 29.4978 20.0617 28.9033 19.4683C26.9233 17.5861 25.4622 16.645 24.52 16.645C24.485 16.6417 24.445 16.64 24.4033 16.64C24.1283 16.64 23.8717 16.725 23.66 16.87L23.665 16.8667C23.4917 17.0833 23.3867 17.3633 23.3867 17.665C23.3867 17.725 23.39 17.7817 23.3983 17.84V17.8333C23.3533 18.3567 23.3267 18.965 23.3267 19.58C23.3267 19.7783 23.33 19.975 23.335 20.1717V20.1433V22.075C23.3517 22.1533 23.3617 22.2433 23.3617 22.335C23.3617 22.7383 23.1783 23.0983 22.8917 23.3367L22.89 23.3383C22.245 23.6333 21.4917 23.8067 20.6967 23.8067C20.5267 23.8067 20.36 23.7983 20.195 23.7833L20.2167 23.785C17.5933 23.735 15.16 22.9667 13.0917 21.6717L13.15 21.705C10.6317 20.175 8.545 18.1833 6.955 15.83L6.91 15.76C5.4 13.7567 3.99167 11.4933 2.79167 9.10667L2.675 8.85C1.97333 7.51333 1.24667 5.87 0.62 4.18L0.52 3.87167C0.265 3.11167 0.08 2.22833 0.00333333 1.31333L0 1.27167C0 0.429445 0.495555 0.00833352 1.48667 0.00833352H5.87C5.91 0.00500019 5.95667 0.00333309 6.005 0.00333309C6.41833 0.00333309 6.8 0.145 7.10167 0.383333L7.09833 0.38C7.43167 0.745 7.67833 1.19333 7.8 1.69333L7.805 1.71333C8.61167 3.99167 9.46667 5.905 10.45 7.73833L10.3383 7.51C11.1417 9.12667 12.03 10.5183 13.0433 11.8033L13.005 11.7517C13.8939 12.8428 14.5872 13.3883 15.085 13.3883C15.1 13.39 15.1183 13.39 15.1383 13.39C15.385 13.39 15.6 13.2567 15.7167 13.0567L15.7183 13.0533C15.8417 12.7367 15.9133 12.3683 15.9133 11.985C15.9133 11.9033 15.91 11.8217 15.9033 11.7417V11.7517V5.28667C15.8683 4.525 15.6817 3.81333 15.37 3.175L15.3833 3.20667C15.1767 2.76667 14.9283 2.38667 14.6333 2.04833L14.6383 2.055C14.365 1.78167 14.1783 1.42333 14.12 1.02333L14.1183 1.01333C14.1183 0.73 14.2483 0.475 14.4517 0.308333L14.4533 0.306667C14.655 0.121667 14.925 0.0100001 15.22 0.0100001H15.2333H22.1433C22.18 0.00500007 22.2217 0.00333309 22.265 0.00333309C22.59 0.00333309 22.8817 0.15 23.075 0.38L23.0767 0.381667C23.2483 0.695 23.35 1.07 23.35 1.46667C23.35 1.53 23.3467 1.59167 23.3417 1.65333V1.645V10.2667C23.3383 10.3067 23.3367 10.3533 23.3367 10.4C23.3367 10.7067 23.4217 10.995 23.5683 11.24L23.565 11.2333C23.6867 11.4133 23.89 11.53 24.12 11.53C24.4133 11.51 24.6817 11.4133 24.9067 11.26L24.9017 11.2633C25.355 10.9517 25.745 10.5967 26.0833 10.195L26.09 10.1867C27.1017 9.04333 28.035 7.78 28.8483 6.43667L28.9133 6.32C29.4867 5.37 30.1067 4.2 30.6683 2.99833L30.7717 2.75333L31.515 1.26667C31.7733 0.523333 32.4667 0 33.2817 0C33.3133 0 33.345 -1.20878e-07 33.3767 0.00166655H33.3717H37.7567C38.9411 0.00166655 39.3856 0.546666 39.09 1.63667H39.0883Z" fill="#7E7E7E"/>
</g>
</svg>
