<svg width="32" height="31" viewBox="0 0 32 31" fill="none" xmlns="http://www.w3.org/2000/svg">
<path d="M0.999385 31L3.09498 23.2996C1.71415 20.9325 0.988684 18.2404 0.993185 15.5C0.993185 6.93935 7.93253 0 16.4932 0C25.0538 0 31.9932 6.93935 31.9932 15.5C31.9932 24.0606 25.0538 31 16.4932 31C13.754 31.0044 11.063 30.2795 8.69668 28.8997L0.999385 31ZM10.8992 8.22739C10.6991 8.23982 10.5035 8.29254 10.3242 8.38239C10.156 8.47761 10.0025 8.59664 9.86848 8.73579C9.68248 8.91094 9.57708 9.06284 9.46393 9.21009C8.89107 9.95564 8.58293 10.8708 8.58818 11.811C8.59128 12.5705 8.78968 13.3098 9.09968 14.0011C9.73363 15.3992 10.7768 16.8795 12.1547 18.2512C12.4864 18.5814 12.8104 18.9131 13.1591 19.2215C14.8694 20.7273 16.9074 21.8132 19.1111 22.3928L19.9931 22.5277C20.2798 22.5432 20.5666 22.5215 20.8549 22.5075C21.3063 22.4842 21.7471 22.362 22.146 22.1495C22.4033 22.0131 22.5242 21.9449 22.7397 21.8085C22.7397 21.8085 22.8063 21.7651 22.9334 21.669C23.1427 21.514 23.2713 21.4039 23.4449 21.2226C23.5736 21.0893 23.6852 20.9327 23.7704 20.7545C23.8913 20.5018 24.0122 20.0198 24.0618 19.6183C24.099 19.3114 24.0882 19.144 24.0835 19.0402C24.0773 18.8743 23.9394 18.7023 23.789 18.6294L22.8869 18.2249C22.8869 18.2249 21.5384 17.6374 20.7154 17.2623C20.6286 17.2245 20.5356 17.203 20.441 17.1988C20.335 17.1879 20.2278 17.1998 20.1268 17.2338C20.0257 17.2677 19.9331 17.3229 19.8551 17.3956V17.3925C19.8474 17.3925 19.7435 17.4809 18.6229 18.8387C18.5586 18.9251 18.47 18.9904 18.3684 19.0263C18.2668 19.0622 18.1568 19.067 18.0525 19.0402C17.9515 19.0132 17.8525 18.979 17.7564 18.9379C17.5642 18.8573 17.4976 18.8263 17.3658 18.7689L17.3581 18.7658C16.4713 18.3787 15.6503 17.8558 14.9246 17.2158C14.7293 17.0453 14.5479 16.8593 14.3619 16.6795C13.7521 16.0956 13.2207 15.4349 12.7809 14.7141L12.6895 14.5669C12.6238 14.4679 12.5707 14.3612 12.5314 14.2491C12.4725 14.0213 12.6259 13.8384 12.6259 13.8384C12.6259 13.8384 13.0026 13.4261 13.1777 13.2029C13.3236 13.0174 13.4596 12.8244 13.5854 12.6247C13.7683 12.3302 13.8256 12.028 13.7295 11.7939C13.2955 10.7337 12.846 9.67819 12.3841 8.63039C12.2927 8.42269 12.0214 8.27389 11.775 8.24444C11.6913 8.23514 11.6076 8.22584 11.5239 8.21964C11.3157 8.2093 11.1071 8.21292 10.8992 8.22739Z" fill="#7E7E7E"/>
</svg>
