<svg width="37" height="25" viewBox="0 0 37 25" fill="none" xmlns="http://www.w3.org/2000/svg">
<path d="M36.2498 3.92333C36.0498 3.16084 35.6486 2.46454 35.0873 1.90557C34.5259 1.34661 33.8246 0.945008 33.055 0.741815C28.3887 0.197601 23.6916 -0.0476408 18.9932 0.00762375C14.2948 -0.0476408 9.59774 0.197601 4.93138 0.741815C4.16174 0.945008 3.46043 1.34661 2.89913 1.90557C2.3378 2.46454 1.93663 3.16084 1.73655 3.92333C1.22539 6.75762 0.976871 9.63218 0.994082 12.5111C0.976016 15.4049 1.22454 18.2943 1.73655 21.1434C1.947 21.8936 2.35279 22.576 2.91342 23.1226C3.47402 23.6692 4.16984 24.0608 4.93138 24.2582C9.59774 24.8023 14.2948 25.0477 18.9932 24.9923C23.6916 25.0477 28.3887 24.8023 33.055 24.2582C33.8165 24.0608 34.5124 23.6692 35.0729 23.1226C35.6335 22.576 36.0394 21.8936 36.2498 21.1434C36.7619 18.2943 37.0103 15.4049 36.9923 12.5111C37.0096 9.63218 36.761 6.75762 36.2498 3.92333ZM15.3033 17.8284V7.23829L24.7304 12.5111L15.3033 17.8062V17.8284Z" fill="#7E7E7E"/>
</svg>
