<svg width="90" height="90" viewBox="0 0 90 90" fill="none" xmlns="http://www.w3.org/2000/svg">
<circle cx="45" cy="45" r="43" fill="white" stroke="#E42D24" stroke-width="4"/>
<circle cx="45" cy="45" r="35" fill="white" stroke="#E42D24" stroke-width="4"/>
<path d="M64.9988 55.199V61.0701C65.001 61.6151 64.8891 62.1546 64.6704 62.654C64.4516 63.1534 64.1307 63.6016 63.7283 63.9701C63.3259 64.3386 62.8508 64.6191 62.3334 64.7937C61.8161 64.9683 61.2679 65.0332 60.724 64.9841C54.69 64.3298 48.8938 62.272 43.8014 58.976C39.0635 55.9714 35.0466 51.9624 32.0359 47.2339C28.7219 42.1284 26.6596 36.3157 26.0159 30.2665C25.9669 29.7253 26.0314 29.1799 26.2051 28.6649C26.3789 28.15 26.6583 27.6768 27.0253 27.2754C27.3924 26.8741 27.8392 26.5535 28.3372 26.3339C28.8353 26.1144 29.3737 26.0007 29.9181 26.0002H35.8009C36.7525 25.9908 37.6751 26.3272 38.3966 26.9465C39.1182 27.5658 39.5895 28.4258 39.7227 29.3663C39.971 31.2451 40.4314 33.09 41.0953 34.8655C41.3591 35.566 41.4162 36.3272 41.2598 37.0591C41.1034 37.791 40.7401 38.4627 40.2129 38.9948L37.7225 41.4803C40.514 46.3798 44.5788 50.4365 49.488 53.2224L51.9784 50.737C52.5115 50.2108 53.1846 49.8482 53.9179 49.6921C54.6512 49.536 55.414 49.593 56.1159 49.8563C57.895 50.5189 59.7434 50.9784 61.626 51.2262C62.5786 51.3603 63.4485 51.8392 64.0704 52.5717C64.6922 53.3042 65.0227 54.2392 64.9988 55.199Z" fill="#E42D24"/>
</svg>
