<svg width="90" height="90" viewBox="0 0 90 90" fill="none" xmlns="http://www.w3.org/2000/svg">
<circle cx="45" cy="45" r="43" fill="white" stroke="#E42D24" stroke-width="4"/>
<circle cx="45" cy="45" r="35" fill="white" stroke="#E42D24" stroke-width="4"/>
<path fill-rule="evenodd" clip-rule="evenodd" d="M27 31C25.8954 31 25 31.8954 25 33V60C25 61.1046 25.8954 62 27 62H62C63.1046 62 64 61.1046 64 60V33C64 31.8954 63.1046 31 62 31H27ZM29.6122 34.2093C29.1755 33.8712 28.5474 33.9512 28.2093 34.3879C27.8712 34.8246 27.9512 35.4527 28.3879 35.7908L43.2757 47.3168C43.9965 47.8749 45.0036 47.8749 45.7244 47.3168L60.6122 35.7908C61.0489 35.4527 61.1289 34.8246 60.7908 34.3879C60.4527 33.9512 59.8246 33.8712 59.3879 34.2093L44.5 45.7354L29.6122 34.2093Z" fill="#E42D24"/>
</svg>
